<svg xmlns="http://www.w3.org/2000/svg" width="375" viewBox="0 0 375 375" height="375" version="1.0"><path fill="#54BBF6" d="M 37.78125 169.917969 C 26.417969 247.003906 79.691406 318.699219 156.773438 330.066406 C 233.859375 341.429688 305.558594 288.160156 316.921875 211.074219 L 337.5 71.503906 L 197.929688 50.925781 C 120.847656 39.535156 49.148438 92.832031 37.78125 169.917969 Z M 37.78125 169.917969"/><path fill="#C4BFBF" d="M 133.078125 102.738281 L 46.648438 152.800781 C 43.804688 154.449219 42.839844 158.058594 44.484375 160.898438 L 96.4375 250.59375 C 98.082031 253.433594 101.695312 254.394531 104.539062 252.746094 L 190.96875 202.683594 C 193.8125 201.035156 194.78125 197.425781 193.132812 194.585938 L 141.179688 104.890625 C 139.535156 102.050781 135.921875 101.089844 133.078125 102.738281"/><path fill="#D9D9D9" d="M 128.226562 119.460938 L 62.125 157.75 C 58.863281 159.636719 57.765625 163.792969 59.660156 167.066406 L 85.898438 212.359375 C 87.792969 215.636719 91.941406 216.75 95.203125 214.859375 L 161.304688 176.570312 C 164.566406 174.683594 165.664062 170.53125 163.769531 167.253906 L 137.53125 121.960938 C 135.636719 118.6875 131.488281 117.570312 128.226562 119.460938"/><path fill="#FFF" d="M 199.617188 95.757812 C 176.914062 111.355469 172.105469 143.789062 188.875 168.199219 C 205.644531 192.609375 237.644531 199.753906 260.347656 184.15625 C 283.050781 168.558594 287.863281 136.128906 271.09375 111.714844 C 254.320312 87.304688 222.320312 80.160156 199.617188 95.757812"/><path fill="#FFF" d="M 194.664062 293.796875 C 207.105469 291.472656 220.296875 287.128906 231.964844 280.585938 C 243.636719 274.046875 253.75 265.761719 262.117188 256.425781 C 262.273438 256.191406 262.496094 256.066406 262.652344 255.832031 C 293.585938 219.902344 301.273438 166.503906 277.601562 122.984375 L 274.503906 117.457031 L 70.503906 231.804688 L 73.601562 237.332031 C 98.496094 280.457031 147.617188 302.011719 194.664062 293.796875"/><path fill="#7ED957" d="M 100.988281 215.640625 L 101.964844 175.074219 L 136.609375 196.203125 Z M 100.988281 215.640625"/><path fill="#008037" d="M 126.097656 200.09375 L 123.585938 147.828125 L 170.105469 171.785156 Z M 126.097656 200.09375"/><path fill="#FF914D" d="M 77.902344 159.679688 C 73.8125 162.121094 72.476562 167.417969 74.917969 171.507812 C 77.363281 175.597656 82.65625 176.933594 86.746094 174.488281 C 90.835938 172.046875 92.171875 166.753906 89.730469 162.664062 C 87.289062 158.574219 81.992188 157.238281 77.902344 159.679688"/></svg>